<?xml version="1.0" encoding="utf-8"?>
<!-- Generator: Adobe Illustrator 23.1.0, SVG Export Plug-In . SVG Version: 6.00 Build 0)  -->
<svg version="1.1" id="Layer_1" xmlns="http://www.w3.org/2000/svg" xmlns:xlink="http://www.w3.org/1999/xlink" x="0px" y="0px"
	 viewBox="0 0 1000 348" style="enable-background:new 0 0 1000 348;" xml:space="preserve">
<style type="text/css">
	.st0{fill:#191A26;}
	.st1{fill:#FFFFFF;}
	.st2{fill:#CC4755;}
	.st3{fill:#DF7850;}
	.st4{fill:#DB9B25;}
	.st5{fill:#DBB425;}
	.st6{fill:#B4BD38;}
	.st7{fill:#88AC47;}
	.st8{fill:#3AAD5D;}
	.st9{fill:#20A6BE;}
	.st10{fill:#407DE6;}
	.st11{fill:#5457EC;}
</style>
<path class="st0" d="M977.57,347.75H22.43C10.04,347.75,0,337.71,0,325.32V22.18C0,9.79,10.04-0.25,22.43-0.25h955.13
	c12.39,0,22.43,10.04,22.43,22.43v303.13C1000,337.71,989.96,347.75,977.57,347.75z"/>
<g>
	<path class="st1" d="M218.19,197.81c-6.92,0-12.06-2.21-15.63-5.69l3.91-4.37c3.01,2.77,6.74,4.43,11.69,4.43
		c4.77,0,8.8-2.28,8.8-6.86c0-3.72-1.94-5.51-8.71-7.54c-8.98-2.68-13.69-6-13.69-12.64c0-6.92,6.21-11.47,14.58-11.47
		c6.12,0,10.61,1.85,14.21,5.11l-3.75,4.25c-2.98-2.58-6.49-3.75-10.03-3.75c-4.34,0-7.69,1.82-7.69,5.48
		c0,3.32,2.34,4.83,9.94,7.11c7.17,2.12,12.55,5.14,12.55,13.13C234.37,192.52,228.4,197.81,218.19,197.81z"/>
	<path class="st1" d="M257.6,192.46c3.17,0,5.78-1.02,8.52-2.83l2.98,4.12c-3.01,2.46-7.23,4.06-11.84,4.06
		c-10.12,0-15.66-6.95-15.66-17.04c0-9.75,5.6-17.13,14.83-17.13c8.61,0,14,6.15,14,16.24c0,1.11-0.06,2.25-0.15,3.08h-21.53
		C249.14,189.63,252.89,192.46,257.6,192.46z M248.71,178.25h15.04c-0.12-6.09-2.68-9.51-7.26-9.51
		C252.16,168.74,249.14,171.76,248.71,178.25z"/>
	<path class="st1" d="M308.83,172.83v24.15h-6.12v-23.19c0-3.38-0.22-4.77-2.18-4.77c-1.57,0-3.2,0.86-4.8,3.2v24.76h-5.57v-23.19
		c0-3.38-0.22-4.77-2.18-4.77c-1.63,0-3.2,0.86-4.8,3.2v24.76h-6.15V164.5h5.2l0.46,3.51c1.85-2.58,3.85-4.37,6.95-4.37
		c2.46,0,4.65,1.05,5.57,4.15c1.81-2.46,4-4.15,7.14-4.15C306.03,163.63,308.83,165.67,308.83,172.83z"/>
	<path class="st1" d="M344.15,193.1l-1.54,4.68c-3.2-0.37-5.57-1.66-6.74-4.49c-2.37,3.01-6.21,4.52-10.37,4.52
		c-6.58,0-10.67-4.06-10.67-10.09c0-6.83,5.54-10.67,15.44-10.67h4.65v-2.12c0-4.21-2.65-5.91-7.23-5.91
		c-2.15,0-5.32,0.55-8.64,1.69l-1.69-4.86c4.06-1.54,8.06-2.21,11.38-2.21c8.71,0,12.95,4.06,12.95,10.89v14.49
		C341.69,191.57,342.43,192.55,344.15,193.1z M334.92,188.52v-7.17h-3.81c-6.49,0-9.04,2.28-9.04,6.06c0,3.48,1.88,5.32,5.54,5.32
		C330.37,192.74,333.26,191.2,334.92,188.52z"/>
	<path class="st1" d="M353.79,164.5h5.94l0.52,4.21c2.71-3.29,6.58-5.08,10.49-5.08c6.06,0,9.07,3.57,9.07,9.66v23.69h-6.89v-20.27
		c0-5.63-0.71-7.81-4.65-7.81c-3.17,0-5.84,2.31-7.6,4.77v23.32h-6.89V164.5z"/>
	<path class="st1" d="M408.37,197.81c-7.57,0-11.54-4.28-11.54-10.67v-17.63h-7.23v-5.01h7.23v-7.26l6.89-0.83v8.09h10.95
		l-0.77,5.01h-10.18v17.56c0,3.48,1.63,5.17,5.6,5.17c2.37,0,4.37-0.62,6.03-1.54l2.49,4.55
		C415.47,196.77,411.96,197.81,408.37,197.81z"/>
	<path class="st1" d="M445.38,191.94h8.83v5.04h-25.44v-5.04h9.72v-22.39h-9.41v-5.04h16.3V191.94z M445.1,152.9
		c0,2.49-1.81,4.37-4.52,4.37c-2.65,0-4.49-1.88-4.49-4.37c0-2.43,1.85-4.31,4.49-4.31C443.29,148.59,445.1,150.47,445.1,152.9z"/>
	<path class="st1" d="M488.21,189.32l3.2,4.43c-2.86,2.43-7.11,4.06-11.41,4.06c-10,0-15.81-6.74-15.81-16.92
		c0-9.91,5.91-17.26,15.93-17.26c4.46,0,8.12,1.32,11.26,3.91l-3.17,4.34c-2.55-1.75-5.2-2.71-7.97-2.71
		c-5.17,0-8.74,3.63-8.74,11.72c0,8.12,3.66,11.26,8.71,11.26C483.26,192.15,485.84,190.98,488.21,189.32z"/>
	<path class="st1" d="M556.89,178.49l12.03,18.49h-8.31l-10.67-17.47h-4.65v17.47h-7.14v-42.45H550c10.89,0,16.55,4.06,16.55,12.27
		C566.54,173.08,562.3,176.89,556.89,178.49z M550.39,159.82h-5.11v14.46h5.26c5.44,0,8.52-2.12,8.52-7.47
		C559.07,161.88,556.24,159.82,550.39,159.82z"/>
	<path class="st1" d="M602.61,193.1l-1.54,4.68c-3.2-0.37-5.57-1.66-6.74-4.49c-2.37,3.01-6.21,4.52-10.37,4.52
		c-6.58,0-10.67-4.06-10.67-10.09c0-6.83,5.54-10.67,15.44-10.67h4.64v-2.12c0-4.21-2.65-5.91-7.23-5.91
		c-2.15,0-5.32,0.55-8.64,1.69l-1.69-4.86c4.06-1.54,8.06-2.21,11.38-2.21c8.71,0,12.95,4.06,12.95,10.89v14.49
		C600.14,191.57,600.88,192.55,602.61,193.1z M593.38,188.52v-7.17h-3.81c-6.49,0-9.04,2.28-9.04,6.06c0,3.48,1.88,5.32,5.54,5.32
		C588.82,192.74,591.72,191.2,593.38,188.52z"/>
	<path class="st1" d="M629.99,191.94h8.83v5.04h-25.44v-5.04h9.72v-22.39h-9.41v-5.04h16.3V191.94z M629.71,152.9
		c0,2.49-1.81,4.37-4.52,4.37c-2.65,0-4.49-1.88-4.49-4.37c0-2.43,1.85-4.31,4.49-4.31C627.9,148.59,629.71,150.47,629.71,152.9z"/>
	<path class="st1" d="M649.17,164.5h5.94l0.52,4.21c2.71-3.29,6.58-5.08,10.49-5.08c6.06,0,9.07,3.57,9.07,9.66v23.69h-6.89v-20.27
		c0-5.63-0.71-7.81-4.65-7.81c-3.17,0-5.84,2.31-7.6,4.77v23.32h-6.89V164.5z"/>
	<path class="st1" d="M701.9,163.63c8.55,0,12.09,6.71,12.09,17.04c0,9.94-4.52,17.13-12.92,17.13c-3.57,0-6.46-1.32-8.55-4.03
		l-0.37,3.2h-6.06v-45.53l6.89-0.77v17.69C695.22,165.42,698.3,163.63,701.9,163.63z M706.7,180.71c0-8.34-2.4-11.75-6.68-11.75
		c-3.08,0-5.41,2.15-7.04,4.64v15.2c1.51,2.34,3.72,3.75,6.37,3.75C703.99,192.55,706.7,188.86,706.7,180.71z"/>
	<path class="st1" d="M750.66,180.68c0,10.31-5.26,17.13-14.67,17.13c-9.47,0-14.67-6.58-14.67-17.07c0-10.12,5.26-17.1,14.7-17.1
		C745.53,163.63,750.66,170.34,750.66,180.68z M728.55,180.74c0,8.06,2.46,11.75,7.44,11.75s7.44-3.69,7.44-11.81
		c0-8-2.46-11.69-7.41-11.69C731.07,168.99,728.55,172.68,728.55,180.74z"/>
	<path class="st1" d="M776.73,196.98l-3.66-23.07l-3.94,23.07h-8.43l-5.51-32.48h6.64l3.38,28.21l4.52-24.09h6.89l4.21,24.09
		l3.38-28.21h6.4l-5.29,32.48H776.73z"/>
</g>
<path class="st2" d="M239.5,85.04l-26.95,26.95c-1.54,1.54-4.04,1.54-5.58,0l-26.95-26.95c-1.54-1.54-1.54-4.04,0-5.58l26.95-26.95
	c1.54-1.54,4.04-1.54,5.58,0l26.95,26.95C241.04,81,241.04,83.5,239.5,85.04z"/>
<path class="st3" d="M384.62,85.04l-26.95,26.95c-1.54,1.54-4.04,1.54-5.58,0l-26.95-26.95c-1.54-1.54-1.54-4.04,0-5.58l26.95-26.95
	c1.54-1.54,4.04-1.54,5.58,0l26.95,26.95C386.16,81,386.16,83.5,384.62,85.04z"/>
<path class="st4" d="M529.74,85.04l-26.95,26.95c-1.54,1.54-4.04,1.54-5.58,0l-26.95-26.95c-1.54-1.54-1.54-4.04,0-5.58l26.95-26.95
	c1.54-1.54,4.04-1.54,5.58,0l26.95,26.95C531.28,81,531.28,83.5,529.74,85.04z"/>
<path class="st5" d="M674.86,85.04l-26.95,26.95c-1.54,1.54-4.04,1.54-5.58,0l-26.95-26.95c-1.54-1.54-1.54-4.04,0-5.58l26.95-26.95
	c1.54-1.54,4.04-1.54,5.58,0l26.95,26.95C676.4,81,676.4,83.5,674.86,85.04z"/>
<path class="st6" d="M819.98,85.04l-26.95,26.95c-1.54,1.54-4.04,1.54-5.58,0L760.5,85.04c-1.54-1.54-1.54-4.04,0-5.58l26.95-26.95
	c1.54-1.54,4.04-1.54,5.58,0l26.95,26.95C821.52,81,821.52,83.5,819.98,85.04z"/>
<path class="st7" d="M239.98,272.04l-26.95,26.95c-1.54,1.54-4.04,1.54-5.58,0l-26.95-26.95c-1.54-1.54-1.54-4.04,0-5.58
	l26.95-26.95c1.54-1.54,4.04-1.54,5.58,0l26.95,26.95C241.52,268,241.52,270.5,239.98,272.04z"/>
<path class="st8" d="M384.73,272.04l-26.95,26.95c-1.54,1.54-4.04,1.54-5.58,0l-26.95-26.95c-1.54-1.54-1.54-4.04,0-5.58
	l26.95-26.95c1.54-1.54,4.04-1.54,5.58,0l26.95,26.95C386.27,268,386.27,270.5,384.73,272.04z"/>
<path class="st9" d="M529.48,272.04l-26.95,26.95c-1.54,1.54-4.04,1.54-5.58,0L470,272.04c-1.54-1.54-1.54-4.04,0-5.58l26.95-26.95
	c1.54-1.54,4.04-1.54,5.58,0l26.95,26.95C531.02,268,531.02,270.5,529.48,272.04z"/>
<path class="st10" d="M674.23,272.04l-26.95,26.95c-1.54,1.54-4.04,1.54-5.58,0l-26.95-26.95c-1.54-1.54-1.54-4.04,0-5.58
	l26.95-26.95c1.54-1.54,4.04-1.54,5.58,0l26.95,26.95C675.77,268,675.77,270.5,674.23,272.04z"/>
<path class="st11" d="M818.98,272.04l-26.95,26.95c-1.54,1.54-4.04,1.54-5.58,0l-26.95-26.95c-1.54-1.54-1.54-4.04,0-5.58
	l26.95-26.95c1.54-1.54,4.04-1.54,5.58,0l26.95,26.95C820.52,268,820.52,270.5,818.98,272.04z"/>
</svg>
