<?xml version="1.0" encoding="utf-8"?>
<!-- Generator: Adobe Illustrator 23.1.0, SVG Export Plug-In . SVG Version: 6.00 Build 0)  -->
<svg version="1.1" id="Layer_1" xmlns="http://www.w3.org/2000/svg" xmlns:xlink="http://www.w3.org/1999/xlink" x="0px" y="0px"
	 viewBox="0 0 540.68 540.68" style="enable-background:new 0 0 540.68 540.68;" xml:space="preserve">
<style type="text/css">
	.st0{fill:#15161F;}
	.st1{fill:#CC4755;}
	.st2{fill:#DF7850;}
	.st3{fill:#DB9B25;}
	.st4{fill:#DBB425;}
	.st5{fill:#B4BD38;}
	.st6{fill:#88AC47;}
	.st7{fill:#3AAD5D;}
	.st8{fill:#20A6BE;}
	.st9{fill:#407DE6;}
	.st10{fill:#5457EC;}
</style>
<circle class="st0" cx="270.34" cy="270.34" r="270.34"/>
<g>
	<path class="st1" d="M189.11,186.63l-59.47,59.47c-1.54,1.54-4.04,1.54-5.58,0l-59.47-59.47c-1.54-1.54-1.54-4.04,0-5.58
		l59.47-59.47c1.54-1.54,4.04-1.54,5.58,0l59.47,59.47C190.65,182.59,190.65,185.09,189.11,186.63z"/>
	<path class="st2" d="M332.11,186.63l-59.47,59.47c-1.54,1.54-4.04,1.54-5.58,0l-59.47-59.47c-1.54-1.54-1.54-4.04,0-5.58
		l59.47-59.47c1.54-1.54,4.04-1.54,5.58,0l59.47,59.47C333.65,182.59,333.65,185.09,332.11,186.63z"/>
	<path class="st3" d="M475.1,186.63l-59.47,59.47c-1.54,1.54-4.04,1.54-5.58,0l-59.47-59.47c-1.54-1.54-1.54-4.04,0-5.58
		l59.47-59.47c1.54-1.54,4.04-1.54,5.58,0l59.47,59.47C476.64,182.59,476.64,185.09,475.1,186.63z"/>
	<path class="st4" d="M260.36,257.63l-59.47,59.47c-1.54,1.54-4.04,1.54-5.58,0l-59.47-59.47c-1.54-1.54-1.54-4.04,0-5.58
		l59.47-59.47c1.54-1.54,4.04-1.54,5.58,0l59.47,59.47C261.9,253.59,261.9,256.09,260.36,257.63z"/>
	<path class="st5" d="M404.1,257.63l-59.47,59.47c-1.54,1.54-4.04,1.54-5.58,0l-59.47-59.47c-1.54-1.54-1.54-4.04,0-5.58
		l59.47-59.47c1.54-1.54,4.04-1.54,5.58,0l59.47,59.47C405.64,253.59,405.64,256.09,404.1,257.63z"/>
	<path class="st6" d="M189.11,328.63l-59.47,59.47c-1.54,1.54-4.04,1.54-5.58,0l-59.47-59.47c-1.54-1.54-1.54-4.04,0-5.58
		l59.47-59.47c1.54-1.54,4.04-1.54,5.58,0l59.47,59.47C190.65,324.59,190.65,327.09,189.11,328.63z"/>
	<path class="st7" d="M332.11,328.63l-59.47,59.47c-1.54,1.54-4.04,1.54-5.58,0l-59.47-59.47c-1.54-1.54-1.54-4.04,0-5.58
		l59.47-59.47c1.54-1.54,4.04-1.54,5.58,0l59.47,59.47C333.65,324.59,333.65,327.09,332.11,328.63z"/>
	<path class="st8" d="M475.1,328.63l-59.47,59.47c-1.54,1.54-4.04,1.54-5.58,0l-59.47-59.47c-1.54-1.54-1.54-4.04,0-5.58
		l59.47-59.47c1.54-1.54,4.04-1.54,5.58,0l59.47,59.47C476.64,324.59,476.64,327.09,475.1,328.63z"/>
	<path class="st9" d="M260.85,399.63l-59.47,59.47c-1.54,1.54-4.04,1.54-5.58,0l-59.47-59.47c-1.54-1.54-1.54-4.04,0-5.58
		l59.47-59.47c1.54-1.54,4.04-1.54,5.58,0l59.47,59.47C262.39,395.59,262.39,398.09,260.85,399.63z"/>
	<path class="st10" d="M404.1,399.63l-59.47,59.47c-1.54,1.54-4.04,1.54-5.58,0l-59.47-59.47c-1.54-1.54-1.54-4.04,0-5.58
		l59.47-59.47c1.54-1.54,4.04-1.54,5.58,0l59.47,59.47C405.64,395.59,405.64,398.09,404.1,399.63z"/>
</g>
</svg>
