<?xml version="1.0" encoding="utf-8"?>
<!-- Generator: Adobe Illustrator 23.1.0, SVG Export Plug-In . SVG Version: 6.00 Build 0)  -->
<svg version="1.1" id="Layer_1" xmlns="http://www.w3.org/2000/svg" xmlns:xlink="http://www.w3.org/1999/xlink" x="0px" y="0px"
	 viewBox="0 0 540.68 540.68" style="enable-background:new 0 0 540.68 540.68;" xml:space="preserve">
<style type="text/css">
	.st0{fill:#14151a;}
	.st1{fill:#CC4755;}
	.st2{fill:#DF7850;}
	.st3{fill:#DB9B25;}
	.st4{fill:#DBB425;}
	.st5{fill:#B4BD38;}
	.st6{fill:#88AC47;}
	.st7{fill:#3AAD5D;}
	.st8{fill:#20A6BE;}
	.st9{fill:#407DE6;}
	.st10{fill:#5457EC;}
</style>
<circle class="st0" cx="270.1" cy="270.34" r="266.34"/>
<g>
	<path class="st1" d="M190.51,181.91L132,240.42c-1.54,1.54-4.04,1.54-5.58,0l-58.51-58.51c-1.54-1.54-1.54-4.04,0-5.58l58.51-58.51
		c1.54-1.54,4.04-1.54,5.58,0l58.51,58.51C192.06,177.87,192.06,180.37,190.51,181.91z"/>
	<path class="st2" d="M331.4,181.91l-58.51,58.51c-1.54,1.54-4.04,1.54-5.58,0l-58.51-58.51c-1.54-1.54-1.54-4.04,0-5.58
		l58.51-58.51c1.54-1.54,4.04-1.54,5.58,0l58.51,58.51C332.94,177.87,332.94,180.37,331.4,181.91z"/>
	<path class="st3" d="M472.28,181.91l-58.51,58.51c-1.54,1.54-4.04,1.54-5.58,0l-58.51-58.51c-1.54-1.54-1.54-4.04,0-5.58
		l58.51-58.51c1.54-1.54,4.04-1.54,5.58,0l58.51,58.51C473.82,177.87,473.82,180.37,472.28,181.91z"/>
	<path class="st4" d="M260.71,251.86l-58.51,58.51c-1.54,1.54-4.04,1.54-5.58,0l-58.51-58.51c-1.54-1.54-1.54-4.04,0-5.58
		l58.51-58.51c1.54-1.54,4.04-1.54,5.58,0l58.51,58.51C262.25,247.82,262.25,250.32,260.71,251.86z"/>
	<path class="st5" d="M402.33,251.86l-58.51,58.51c-1.54,1.54-4.04,1.54-5.58,0l-58.51-58.51c-1.54-1.54-1.54-4.04,0-5.58
		l58.51-58.51c1.54-1.54,4.04-1.54,5.58,0l58.51,58.51C403.87,247.82,403.87,250.32,402.33,251.86z"/>
	<path class="st6" d="M190.51,321.81L132,380.32c-1.54,1.54-4.04,1.54-5.58,0l-58.51-58.51c-1.54-1.54-1.54-4.04,0-5.58l58.51-58.51
		c1.54-1.54,4.04-1.54,5.58,0l58.51,58.51C192.06,317.77,192.06,320.27,190.51,321.81z"/>
	<path class="st7" d="M331.4,321.81l-58.51,58.51c-1.54,1.54-4.04,1.54-5.58,0l-58.51-58.51c-1.54-1.54-1.54-4.04,0-5.58
		l58.51-58.51c1.54-1.54,4.04-1.54,5.58,0l58.51,58.51C332.94,317.77,332.94,320.27,331.4,321.81z"/>
	<path class="st8" d="M472.28,321.81l-58.51,58.51c-1.54,1.54-4.04,1.54-5.58,0l-58.51-58.51c-1.54-1.54-1.54-4.04,0-5.58
		l58.51-58.51c1.54-1.54,4.04-1.54,5.58,0l58.51,58.51C473.82,317.77,473.82,320.27,472.28,321.81z"/>
	<path class="st9" d="M261.19,391.76l-58.51,58.51c-1.54,1.54-4.04,1.54-5.58,0l-58.51-58.51c-1.54-1.54-1.54-4.04,0-5.58
		l58.51-58.51c1.54-1.54,4.04-1.54,5.58,0l58.51,58.51C262.73,387.72,262.73,390.22,261.19,391.76z"/>
	<path class="st10" d="M402.33,391.76l-58.51,58.51c-1.54,1.54-4.04,1.54-5.58,0l-58.51-58.51c-1.54-1.54-1.54-4.04,0-5.58
		l58.51-58.51c1.54-1.54,4.04-1.54,5.58,0l58.51,58.51C403.87,387.72,403.87,390.22,402.33,391.76z"/>
</g>
</svg>
